<?xml version="1.0" encoding="utf-8"?><!DOCTYPE svg PUBLIC "-//W3C//DTD SVG 1.1//EN" "http://www.w3.org/Graphics/SVG/1.1/DTD/svg11.dtd"><svg version="1.1" xmlns="http://www.w3.org/2000/svg" xmlns:xlink="http://www.w3.org/1999/xlink" x="0px" y="0px" viewBox="-9.987 -24.731 69.947 125" enable-background="new -9.987 -24.731 69.947 100" xml:space="preserve"><g><path d="M47.717,69.652l-8.759-49.627h11.625h2.444V5.298h-4.889v9.841h-5.12V-2.109h8.747L25.289-24.731L-1.187-2.111h8.58v17.248
		h-5.53V5.296h-4.889v14.728h2.446h11.566L2.226,69.65H-9.987v5.619H59.96v-5.617H47.717z M39.904,57.703L28.223,38.505
		l6.431-10.554L39.904,57.703z M32.912,20.025l-7.974,13.082l-7.958-13.082H32.912z M37.403-0.32v9.653H13.008V-0.32H37.403z
		 M15.273,28.034l6.375,10.471L10.076,57.489L15.273,28.034z M9.24,69.652l15.693-25.748l15.667,25.748H9.24z"/></g><text x="-9.987" y="90.269" fill="#000000" font-size="5px" font-weight="bold" font-family="'Helvetica Neue', Helvetica, Arial-Unicode, Arial, Sans-serif">Created by Luis Prado</text><text x="-9.987" y="95.269" fill="#000000" font-size="5px" font-weight="bold" font-family="'Helvetica Neue', Helvetica, Arial-Unicode, Arial, Sans-serif">from the Noun Project</text></svg>